# xmcd
#
# Track frame offsets:
#	150
#	13943
#	29479
#	49067
#	58209
#	70723
#	79598
#	88376
#	101818
#	109897
#	120966
#
# Disc length: 1883 seconds
#
# Revision: 0
# Processed by: cddbd v1.4PL0 Copyright (c) Steve Scherf et al.
# Submitted via: audiograbber 1.82.01
#
DISCID=9407590b
DTITLE=New Plainsmen Quartet, The - Favorites
DYEAR=2001
DGENRE=
TTITLE0=Just A Little Talk With Jesus
TTITLE1=Gloryroad
TTITLE2=O What A Savior
TTITLE3=Give The World A Smile
TTITLE4=Singing In That Heavenly Choir
TTITLE5=I'm Living In Canaan Now
TTITLE6=God Made A Way
TTITLE7=What A Lovely Name
TTITLE8=Happy Rhythm
TTITLE9=Rainbow Of Love
TTITLE10=If You Could See Where I Am
EXTD=
EXTT0=
EXTT1=
EXTT2=
EXTT3=
EXTT4=
EXTT5=
EXTT6=
EXTT7=
EXTT8=
EXTT9=
EXTT10=
PLAYORDER=
